<?xml version="1.0" standalone="no"?><!DOCTYPE svg PUBLIC "-//W3C//DTD SVG 1.1//EN" "http://www.w3.org/Graphics/SVG/1.1/DTD/svg11.dtd"><svg class="icon" viewBox="0 0 1024 1024" version="1.1" xmlns="http://www.w3.org/2000/svg"><path d="M400.541538 325.710769c-0.787692 1.969231-1.181538 26.781538-0.787692 55.532308 0 28.750769-0.787692 53.169231-1.969231 53.956923-1.181538 0.787692-2.756923-3.150769-3.150769-9.058462-0.393846-5.907692-3.544615-25.6-6.695384-44.110769-3.150769-18.510769-5.907692-34.658462-5.907693-35.84 0-1.181538-9.452308-1.969231-20.48-1.969231l-20.873846 0.787693v46.08c0.393846 25.206154-1.181538 46.08-2.756923 46.08-1.575385 0-3.150769-3.150769-3.544615-7.089231 0-3.544615-1.181538-11.027692-1.969231-16.541538-2.756923-15.36-9.452308-56.713846-9.452308-59.076924 0-1.181538-61.046154-1.969231-135.876923-1.96923s-135.876923 0.787692-135.876923 2.363077c0 5.513846 98.067692 81.92 142.178462 110.670769 58.289231 37.809231 77.193846 43.323077 171.716923 48.049231 18.116923 1.181538 37.415385 4.726154 44.110769 7.876923 16.935385 9.058462 29.144615 27.963077 30.72 49.230769 3.150769 34.264615-18.510769 57.501538-63.803077 67.741538-17.723077 3.938462-22.055385 7.483077-41.353846 31.507693l-21.661539 27.175384-0.393846 31.507693-0.393846 31.507692H415.901538l0.787693-26.387692c0.393846-14.572308 1.575385-29.144615 2.756923-32.689231 1.181538-3.150769 16.935385-16.147692 35.052308-28.356923l33.083076-22.449231-22.44923 30.326154c-22.055385 29.144615-43.716923 66.56-37.021539 63.015384 44.110769-21.661538 72.467692-27.963077 121.304616-27.963076 37.809231 0 76.8 8.270769 101.612307 20.873846 7.876923 4.332308 14.572308 6.695385 14.572308 5.513846 0-9.058462-36.233846-64.984615-53.169231-81.92-14.178462-14.178462-2.756923-8.664615 25.6 12.209231 16.147692 11.815385 31.113846 23.236923 33.083077 24.812307 3.544615 3.544615 5.12 18.904615 5.907692 50.018462l0.393847 12.996923h96.886153l-0.393846-30.72c0-33.083077-1.969231-37.415385-27.175384-65.772308-7.876923-8.664615-14.178462-16.935385-14.178462-18.116923 0-1.181538-11.815385-4.332308-26.781538-7.089231-53.956923-9.452308-73.649231-31.507692-73.649231-81.526153 0-23.630769 1.969231-31.507692 12.996923-53.169231 14.966154-29.538462 39.384615-55.926154 70.104615-76.406154 26.781538-17.723077 65.378462-35.446154 90.584616-41.747692 26.781538-6.301538 28.356923-9.452308 4.332307-9.846154-22.843077-0.393846-112.64-4.332308-178.018461-7.876923-24.024615-1.181538-51.593846-2.756923-62.227692-3.15077-10.24-0.787692-19.298462-1.969231-20.086154-2.756923-1.181538-0.787692 80.344615-1.575385 181.169231-1.575384H913.723077V322.953846h-255.606154c-140.996923 0-256.787692 1.181538-257.575385 2.756923z m142.966154 35.052308c0 3.150769-7.483077 5.12-9.452307 2.363077-1.181538-1.969231 0.393846-3.544615 3.544615-3.544616s5.907692 0.787692 5.907692 1.181539z" fill="" /></svg>